<?xml version="1.0" encoding="utf-8"?>
<!-- Generator: Adobe Illustrator 16.0.0, SVG Export Plug-In . SVG Version: 6.00 Build 0)  -->
<!DOCTYPE svg PUBLIC "-//W3C//DTD SVG 1.1//EN" "http://www.w3.org/Graphics/SVG/1.1/DTD/svg11.dtd">
<svg version="1.1" id="Layer_1" xmlns="http://www.w3.org/2000/svg" xmlns:xlink="http://www.w3.org/1999/xlink" x="0px" y="0px"
	 width="64px" height="64px" viewBox="0 0 64 64" enable-background="new 0 0 64 64" xml:space="preserve">
<g>
	<path fill="#231F20" d="M60.072,32.864C60.072,32.863,60.072,32.863,60.072,32.864L60.072,32.864
		C59.961,17.419,47.309,4.946,31.866,5.057C16.423,5.167,3.949,17.821,4.058,33.265c0.11,15.441,12.765,27.915,28.208,27.804
		C47.71,60.958,60.183,48.307,60.072,32.864L60.072,32.864L60.072,32.864z M32.229,55.723C19.734,55.813,9.495,45.722,9.403,33.23
		c0-0.001,0-0.003,0-0.004C9.315,20.732,19.407,10.494,31.9,10.402c0.001,0,0.002,0,0.004,0
		c12.496-0.09,22.734,10.003,22.824,22.499C54.816,45.396,44.724,55.633,32.229,55.723z"/>
	<path fill="#231F20" d="M34.737,41.088c0.025-0.104,0.043-0.211,0.043-0.318c0-0.002,0.001-0.003,0.001-0.005
		c0-0.111-0.015-0.219-0.039-0.322c-0.007-0.029-0.018-0.058-0.026-0.087c-0.025-0.086-0.059-0.168-0.1-0.247
		c-0.009-0.016-0.012-0.034-0.021-0.05l-8.612-15.143c-0.013-0.022-0.029-0.04-0.043-0.061c-0.029-0.045-0.06-0.09-0.094-0.132
		c-0.028-0.035-0.059-0.066-0.09-0.098c-0.032-0.033-0.064-0.064-0.101-0.094c-0.041-0.034-0.083-0.063-0.127-0.092
		c-0.021-0.014-0.04-0.032-0.063-0.045c-0.013-0.007-0.027-0.011-0.04-0.018c-0.047-0.025-0.095-0.046-0.144-0.066
		c-0.039-0.016-0.077-0.032-0.117-0.044c-0.045-0.014-0.091-0.022-0.137-0.032c-0.044-0.009-0.088-0.019-0.133-0.023
		c-0.044-0.005-0.089-0.004-0.134-0.004c-0.046,0-0.092-0.001-0.138,0.003c-0.043,0.004-0.085,0.013-0.127,0.021
		c-0.049,0.009-0.097,0.018-0.145,0.032c-0.036,0.011-0.071,0.025-0.107,0.04c-0.054,0.021-0.106,0.042-0.157,0.069
		c-0.011,0.006-0.023,0.009-0.035,0.016c-0.02,0.011-0.036,0.027-0.055,0.039c-0.048,0.031-0.096,0.063-0.141,0.1
		c-0.032,0.026-0.061,0.054-0.091,0.083c-0.035,0.034-0.069,0.069-0.101,0.107c-0.032,0.038-0.059,0.078-0.086,0.119
		c-0.016,0.023-0.035,0.043-0.049,0.068l-8.809,15.083c-0.395,0.675-0.167,1.543,0.509,1.938s1.543,0.166,1.937-0.509l7.569-12.961
		l6.189,10.883l-6.266-0.022c-0.782-0.003-1.418,0.628-1.422,1.411c-0.002,0.782,0.629,1.419,1.412,1.421l8.71,0.031
		c0.02,0,0.037-0.007,0.056-0.008c0.088-0.003,0.175-0.015,0.262-0.034c0.03-0.007,0.06-0.011,0.088-0.019
		c0.103-0.031,0.204-0.07,0.301-0.125c0.002-0.001,0.003-0.003,0.005-0.004c0.077-0.044,0.145-0.103,0.213-0.16
		c0.059-0.051,0.111-0.105,0.16-0.164c0.052-0.062,0.105-0.12,0.146-0.189c0.052-0.089,0.088-0.186,0.119-0.285
		c0.006-0.017,0.017-0.031,0.021-0.049C34.734,41.123,34.733,41.104,34.737,41.088z"/>
	<path fill="#231F20" d="M48.456,23.677c-0.024-0.014-0.051-0.021-0.076-0.034c-0.044-0.022-0.089-0.043-0.136-0.061
		c-0.045-0.017-0.089-0.029-0.134-0.041c-0.043-0.012-0.086-0.022-0.131-0.029c-0.052-0.009-0.104-0.013-0.155-0.015
		c-0.026-0.001-0.052-0.008-0.078-0.008l-17.467,0.054c-0.782,0.002-1.415,0.639-1.412,1.421s0.639,1.415,1.42,1.412l15.009-0.046
		l-6.242,10.853l-3.157-5.413c-0.395-0.676-1.262-0.904-1.938-0.51s-0.904,1.262-0.51,1.938l4.39,7.523
		c0.01,0.017,0.023,0.027,0.033,0.043c0.047,0.074,0.101,0.143,0.161,0.207c0.022,0.023,0.042,0.049,0.065,0.07
		c0.077,0.072,0.162,0.139,0.258,0.193c0.001,0,0.002,0.001,0.002,0.001c0.091,0.052,0.188,0.088,0.287,0.118
		c0.138,0.043,0.279,0.071,0.42,0.07h0.001h0.001c0.176-0.001,0.351-0.046,0.521-0.114c0.06-0.023,0.121-0.041,0.178-0.073
		c0.003-0.002,0.007-0.003,0.011-0.005c0.098-0.057,0.183-0.126,0.261-0.201c0.019-0.018,0.035-0.039,0.054-0.058
		c0.063-0.067,0.117-0.138,0.165-0.214c0.01-0.017,0.024-0.028,0.034-0.045l8.687-15.102c0.015-0.025,0.022-0.052,0.035-0.078
		c0.021-0.044,0.042-0.087,0.06-0.134c0.017-0.045,0.029-0.09,0.042-0.136c0.011-0.042,0.021-0.085,0.028-0.129
		c0.009-0.052,0.013-0.104,0.016-0.156c0.002-0.026,0.008-0.051,0.008-0.078c0-0.015-0.004-0.029-0.005-0.044
		c-0.002-0.053-0.009-0.105-0.017-0.157c-0.006-0.041-0.011-0.082-0.021-0.122c-0.011-0.048-0.027-0.095-0.044-0.141
		c-0.014-0.04-0.026-0.08-0.044-0.118c-0.021-0.046-0.047-0.088-0.072-0.132c-0.021-0.035-0.039-0.07-0.063-0.103
		c-0.029-0.041-0.063-0.078-0.097-0.116c-0.027-0.031-0.055-0.063-0.084-0.091c-0.034-0.032-0.071-0.06-0.108-0.089
		c-0.038-0.029-0.076-0.059-0.117-0.084C48.481,23.696,48.47,23.686,48.456,23.677z"/>
</g>
</svg>
